# xmcd CD database file
#
# Track frame offsets:
#	150
#	21426
#	50809
#	67028
#	94192
#	118081
#	153339
#	182888
#	205089
#	229914
#	263322
#	289990
#
# Disc length: 4244 seconds
#
# Revision: 0
# Processed by: cddbd v1.5.2PL0 Copyright (c) Steve Scherf et al.
# Submitted via: CDex 1.51
#
DISCID=b010920c
DTITLE=Martin Schack - Jazz På Dansk
DYEAR=2010
DGENRE=Jazz
TTITLE0=Jeg Ved En Lærkerede
TTITLE1=En Yndig Og Frydefuld Sommertid
TTITLE2=Den Danske Sang Er En Ung Blond Pige
TTITLE3=Visen Om De Atten Svaner
TTITLE4=Elefantens Vuggevise
TTITLE5=Se Det Summer Af Sol Over Engen
TTITLE6=Nu Er Jord Og Himmel Stille
TTITLE7=Du Kom Med Alt Det Der Var Dig
TTITLE8=Regnvejrsdag I November
TTITLE9=Septembers Himmel Er Så Blå
TTITLE10=Man Binder Os På Mund Og Hånd
TTITLE11=Den Blå Anamone
EXTD=YEAR: 2010
EXTT0=
EXTT1=
EXTT2=
EXTT3=
EXTT4=
EXTT5=
EXTT6=
EXTT7=
EXTT8=
EXTT9=
EXTT10=
EXTT11=
PLAYORDER=
